:SAMPLES-PER-SECOND 30
:FULLY-SPECIFIED
:DEGREES
370
root  10.8431 38.6995 19.4621 168.631 72.5966 173.987
RightUpLeg  -15.7258 2.95051 -8.58878
RightLeg  54.5484 2.37764 3.19805
RightFoot  0.825614 -0.755701 7.15583
RightToes  5.82063e-011 0 -3.6325e-017
Spine  9.61837 -0.870999 -1.62556
Spine1  9.30461 -0.644951 -4.92721
HEad  -2.24255 3.29147 -0.545237
LeftShoulder1  -0.0204482 3.55737 -30.6887
LeftArm  9.98301 9.02112 -43.8757
LeftForeArm  17.1715 -21.2033 -4.59648
LeftHand  -0.000710399 3.04568 -1.02195
RightShoulder  -0.580856 -5.23162 26.8506
RightArm  22.5269 -6.76418 49.1661
RightForeArm  0.0906153 24.8365 5.31443
RightHand  -0.628137 3.99137 -8.00605
LeftUpLeg  -1.64006 3.18013 -10.1728
LeftLeg  19.1997 2.8414 1.08257
LeftFoot  -11.5872 0.096769 12.5806
LeftToes  1.81573e-012 2.54609e-010 -3.45981e-011
371
root  11.9886 38.779 19.2999 170.943 70.8593 176.557
RightUpLeg  -16.6448 3.46617 -8.37421
RightLeg  44.7106 2.58032 2.42503
RightFoot  -0.560559 -0.729108 7.67113
RightToes  5.82063e-011 0 -3.6325e-017
Spine  9.56362 -1.14917 -2.34796
Spine1  9.42488 -1.48581 -2.59218
HEad  -2.1217 1.64564 -1.31552
LeftShoulder1  -0.125402 3.83636 -31.6476
LeftArm  11.8729 7.16836 -43.4416
LeftForeArm  15.9757 -24.6593 -4.33381
LeftHand  -0.0270039 1.70872 0.638872
RightShoulder  -0.508914 -5.04489 26.2136
RightArm  21.7099 -7.71045 48.5499
RightForeArm  0.355442 24.5723 5.24175
RightHand  -0.523217 3.23656 -7.27333
LeftUpLeg  0.998049 3.58982 -9.02063
LeftLeg  18.4218 0.585466 0.667012
LeftFoot  -12.8651 0.243315 12.4125
LeftToes  1.81573e-012 2.54609e-010 -3.45981e-011
372
root  13.1767 38.7907 19.0769 171.892 69.7129 177.65
RightUpLeg  -16.6666 3.47815 -8.36667
RightLeg  32.688 3.15133 1.99798
RightFoot  -0.752389 -0.749636 8.01571
RightToes  5.82063e-011 0 -3.6325e-017
Spine  9.27776 -1.4075 -1.74098
Spine1  9.58441 -1.59053 -2.40606
HEad  -2.76404 2.42991 -1.10558
LeftShoulder1  -0.11047 3.80126 -31.0079
LeftArm  11.0694 5.86788 -43.9022
LeftForeArm  17.3181 -27.3991 -4.96788
LeftHand  -0.0452886 1.95846 1.17321
RightShoulder  -0.526819 -5.08654 26.4889
RightArm  20.8367 -8.94243 47.716
RightForeArm  -1.24612 24.3245 5.26787
RightHand  -0.588929 3.91834 -7.6135
LeftUpLeg  3.7132 4.26952 -8.04276
LeftLeg  17.4734 -1.21718 0.210267
LeftFoot  -14.2129 0.399587 12.4407
LeftToes  1.81573e-012 2.54609e-010 -3.45981e-011
373
root  14.4057 38.7545 18.8066 172.258 69.1395 178.01
RightUpLeg  -15.8178 1.67348 -7.93805
RightLeg  18.8584 4.73935 1.25347
RightFoot  -0.840666 -0.82378 8.89948
RightToes  5.82063e-011 0 -3.6325e-017
Spine  8.8442 -1.42797 -0.986272
Spine1  9.7035 -1.42123 -2.25255
HEad  -3.17274 0.894787 -0.8922
LeftShoulder1  -0.141839 3.88443 -31.0951
LeftArm  10.9414 3.99711 -43.866
LeftForeArm  17.2868 -28.9388 -5.32503
LeftHand  -0.0838438 1.59468 2.34769
RightShoulder  -0.522743 -5.06671 26.6309
RightArm  20.2132 -10.2851 46.919
RightForeArm  -3.80876 23.6768 5.25564
RightHand  -0.53382 4.13631 -6.77274
LeftUpLeg  6.51184 5.22163 -7.03054
LeftLeg  16.241 -2.77634 -0.429799
LeftFoot  -15.4798 0.550506 12.6145
LeftToes  1.81573e-012 2.54609e-010 -3.45981e-011
374
root  15.6651 38.6579 18.5201 171.961 68.5797 177.702
RightUpLeg  -14.4907 -3.80964 -6.58223
RightLeg  5.64234 8.43851 0.113613
RightFoot  -1.58319 -0.92612 10.6903
RightToes  5.82063e-011 0 -3.6325e-017
Spine  8.31893 -1.59417 0.134866
Spine1  9.92165 -1.20334 -2.91592
HEad  -3.77499 0.438392 -1.00422
LeftShoulder1  -0.0790937 3.72029 -30.4801
LeftArm  9.68257 3.02751 -44.047
LeftForeArm  18.5641 -30.1858 -5.548
LeftHand  -0.0955159 1.26354 2.53014
RightShoulder  -0.580485 -5.20612 27.3519
RightArm  19.7944 -11.6286 46.3442
RightForeArm  -4.29629 23.1664 5.19204
RightHand  -0.45859 2.64179 -6.84017
LeftUpLeg  9.54747 5.93598 -6.22011
LeftLeg  14.7047 -4.08809 -0.932422
LeftFoot  -16.835 0.688927 12.1928
LeftToes  1.81573e-012 2.54609e-010 -3.45981e-011
375
root  16.9745 38.4408 18.2205 171.557 68.0685 177.462
RightUpLeg  -13.7146 -7.5571 -5.5897
RightLeg  -3.13138 7.61428 -0.0718661
RightFoot  -2.33584 -0.929048 11.5416
RightToes  5.82063e-011 0 -3.6325e-017
Spine  7.93165 -1.69596 0.311369
Spine1  10.3008 -1.39834 -2.2528
HEad  -4.59263 -1.03548 -0.916616
LeftShoulder1  -0.10808 3.79695 -30.6505
LeftArm  9.00671 1.80109 -44.0103
LeftForeArm  19.0524 -30.5289 -5.60346
LeftHand  -0.0857106 1.51514 2.3599
RightShoulder  -0.571065 -5.16935 27.5209
RightArm  19.7271 -12.5714 45.9133
RightForeArm  -4.34747 22.6379 5.13196
RightHand  -0.495831 2.65073 -7.34671
LeftUpLeg  12.3236 6.44685 -5.4625
LeftLeg  14.2912 -5.00518 -1.14194
LeftFoot  -18.6023 0.872511 11.9298
LeftToes  1.81573e-012 2.54609e-010 -3.45981e-011
